<svg id="Layer_1" data-name="Layer 1" xmlns="http://www.w3.org/2000/svg" viewBox="0 0 805.22 220.1"><path d="M-302.61,62.2h72.25l74,73.92h-74v73.93l-72.25-73.93Zm0-72.25h146.28V62.2h-74Z" transform="translate(302.61 10.05)"/><polygon points="284.06 156.24 284.06 47.08 351.38 47.08 351.38 68.89 309.33 68.89 309.33 97.52 351.38 97.52 351.38 119.33 309.33 119.33 309.33 156.24 284.06 156.24"/><path d="M63.88,146.19V70.59H89V87.47c0-5,3.36-10.17,6.71-13.53,5-3.35,8.5-5,13.53-5,3.35,0,5,1.68,6.71,1.68V92.5h-6.71c-6.71,0-11.85,1.68-15.2,6.71-3.36,3.36-5,10.07-5,18.46v28.52Z" transform="translate(302.61 10.05)"/><path d="M163.07,129.41c6.71,0,10.07-1.67,13.43-6.71,3.35-3.35,5-8.39,5-13.42,0-6.71-1.68-10.07-5-15.1-3.36-3.36-6.72-5-13.43-5-5,0-10.17,1.67-13.52,5-3.36,5-5,8.39-5,15.1,0,5,1.67,10.07,5,13.42,3.35,5,8.49,6.71,13.52,6.71m-6.71,20.14c-11.84,0-20.24-5-26.94-11.75-5-6.71-8.4-16.78-8.4-28.52a62.46,62.46,0,0,1,3.36-20.13A40.09,40.09,0,0,1,137.8,73.94c5-3.35,11.75-5,18.56-5,5,0,10.07,1.68,15.1,3.35a17.15,17.15,0,0,1,8.39,10.18V70.59H205v75.6H179.85V136.12c-1.68,3.36-5,6.72-8.39,10.07-5,1.68-10.06,3.36-15.1,3.36" transform="translate(302.61 10.05)"/><path d="M223.58,146.19V70.59h23.49V82.43c1.67-5.13,5-6.81,8.38-10.17,5.14-1.67,8.5-3.35,13.53-3.35,11.75,0,20.13,5,23.49,13.52,3.35-3.45,6.71-6.81,10.06-10.17,5-1.67,10.18-3.35,15.21-3.35,18.46,0,26.84,10.07,26.84,30.3v47H321.1V104.25c0-5-1.68-8.39-3.36-11.75a12.91,12.91,0,0,0-8.49-3.35q-7.56,0-10.07,5c-1.68,1.68-3.36,6.71-3.36,13.42v38.59H272.33V104.25c0-5-1.67-8.39-3.35-11.75a12.85,12.85,0,0,0-8.39-3.35c-3.46,0-6.82,1.68-10.17,5-1.68,1.68-3.35,6.71-3.35,13.42v38.59Z" transform="translate(302.61 10.05)"/><path d="M381.6,100.89h31.87c0-5-1.67-8.39-3.35-11.74-3.35-3.36-6.71-3.36-11.74-3.36A31.6,31.6,0,0,0,385,89.15c-1.67,3.35-3.35,6.71-3.35,11.74m55.47,3.36V116H381.6c0,5,1.68,8.39,5,11.75,1.67,1.67,6.7,3.35,11.74,3.35,8.39,0,11.74-1.68,15.09-6.71h23.6c-1.68,6.71-5,13.42-13.42,18.46-6.72,3.35-15.2,6.71-25.27,6.71-13.43,0-23.49-3.36-30.2-11.75a40.1,40.1,0,0,1-11.85-28.52c0-13.42,5-21.81,11.85-30.31q10.06-10.06,30.2-10.06c11.74,0,20.24,3.35,28.62,10.06,6.71,6.82,10.07,15.21,10.07,25.28" transform="translate(302.61 10.05)"/><path d="M450.49,146.19V70.59h23.6V87.47a36.91,36.91,0,0,1,8.38-13.53c3.36-3.35,8.4-5,13.42-5,1.68,0,5,1.68,6.72,1.68V92.5h-8.39c-5,0-10.07,1.68-13.42,6.71-5,3.36-6.71,10.07-6.71,18.46v28.52Z" transform="translate(302.61 10.05)"/></svg>